<svg width="175" height="40" viewBox="0 0 175 40" fill="none" xmlns="http://www.w3.org/2000/svg">
<path d="M34.1422 5.85781C30.3647 2.08031 25.3422 0 20 0C14.6578 0 9.63531 2.08031 5.85781 5.85781C2.08031 9.63531 0 14.6578 0 20C0 25.3422 2.08039 30.3646 5.85781 34.1422C9.63523 37.9198 14.6578 40 20 40C25.3422 40 30.3647 37.9197 34.1422 34.1422C37.9197 30.3647 40 25.3422 40 20C40 14.6578 37.9196 9.63539 34.1422 5.85781Z" fill="#065BBE"/>
<g clip-path="url(#clip0_109112_176)">
<path d="M20.5714 8V33.1429" stroke="white" stroke-width="2" stroke-linecap="round" stroke-linejoin="round"/>
<path d="M26.2857 12.5714H17.7143C16.6534 12.5714 15.636 12.9929 14.8859 13.743C14.1357 14.4931 13.7143 15.5106 13.7143 16.5714C13.7143 17.6323 14.1357 18.6497 14.8859 19.3999C15.636 20.15 16.6534 20.5714 17.7143 20.5714H23.4286C24.4894 20.5714 25.5069 20.9929 26.257 21.743C27.0072 22.4932 27.4286 23.5106 27.4286 24.5714C27.4286 25.6323 27.0072 26.6497 26.257 27.3999C25.5069 28.15 24.4894 28.5714 23.4286 28.5714H13.7143" stroke="white" stroke-width="2" stroke-linecap="round" stroke-linejoin="round"/>
</g>
<path d="M70.6 27.512H73.96V19.712C73.96 16.04 71.704 14.024 68.512 14.024C66.568 14.024 64.816 15.056 63.952 16.568C63.04 14.912 61.336 14.024 59.272 14.024C57.616 14.024 56.2 14.72 55.36 15.824V14.216H52V27.512H55.36V20.168C55.36 18.056 56.536 16.952 58.36 16.952C60.136 16.952 61.312 18.056 61.312 20.168V27.512H64.672V20.168C64.672 18.056 65.848 16.952 67.648 16.952C69.424 16.952 70.6 18.056 70.6 20.168V27.512Z" fill="white"/>
<path d="M87.4684 23.72C87.3724 18.848 80.0044 20.36 80.0044 17.936C80.0044 17.168 80.6524 16.664 81.9004 16.664C83.2204 16.664 84.0364 17.36 84.1324 18.392H87.3484C87.1564 15.752 85.2124 14 81.9964 14C78.7084 14 76.7404 15.776 76.7404 17.984C76.7404 22.856 84.2524 21.344 84.2524 23.72C84.2524 24.488 83.5324 25.088 82.2124 25.088C80.8684 25.088 79.9324 24.32 79.8124 23.312H76.4284C76.5724 25.784 78.9004 27.728 82.2364 27.728C85.4764 27.728 87.4684 26 87.4684 23.72Z" fill="white"/>
<path d="M108.827 27.512H112.187V19.712C112.187 16.04 109.931 14.024 106.739 14.024C104.795 14.024 103.043 15.056 102.179 16.568C101.267 14.912 99.5626 14.024 97.4986 14.024C95.8426 14.024 94.4266 14.72 93.5866 15.824V14.216H90.2266V27.512H93.5866V20.168C93.5866 18.056 94.7626 16.952 96.5866 16.952C98.3626 16.952 99.5386 18.056 99.5386 20.168V27.512H102.899V20.168C102.899 18.056 104.075 16.952 105.875 16.952C107.651 16.952 108.827 18.056 108.827 20.168V27.512Z" fill="white"/>
<path d="M128.215 20.864C128.215 16.664 125.215 14 121.375 14C117.535 14 114.535 16.664 114.535 20.864C114.535 25.04 117.439 27.728 121.279 27.728C125.143 27.728 128.215 25.04 128.215 20.864ZM117.943 20.864C117.943 18.2 119.551 16.928 121.327 16.928C123.103 16.928 124.759 18.2 124.759 20.864C124.759 23.504 123.055 24.8 121.279 24.8C119.479 24.8 117.943 23.504 117.943 20.864Z" fill="white"/>
<path d="M139.992 27.512H143.352V19.712C143.352 16.04 141.144 14.024 138.048 14.024C136.344 14.024 134.904 14.744 134.04 15.872V14.216H130.68V27.512H134.04V20.168C134.04 18.032 135.216 16.88 137.04 16.88C138.816 16.88 139.992 18.032 139.992 20.168V27.512Z" fill="white"/>
<path d="M152.259 16.76C153.987 16.76 155.379 17.864 155.427 19.616H149.115C149.379 17.792 150.651 16.76 152.259 16.76ZM158.571 23.336H154.947C154.515 24.224 153.723 24.944 152.283 24.944C150.603 24.944 149.259 23.84 149.091 21.872H158.811C158.883 21.44 158.907 21.008 158.907 20.576C158.907 16.616 156.195 14 152.355 14C148.419 14 145.683 16.664 145.683 20.864C145.683 25.04 148.491 27.728 152.355 27.728C155.643 27.728 157.851 25.784 158.571 23.336Z" fill="white"/>
<path d="M167.023 23.504L163.591 14.216H159.823L165.151 27.176L162.271 33.8H165.847L174.079 14.216H170.503L167.023 23.504Z" fill="white"/>
<defs>
<clipPath id="clip0_109112_176">
<rect width="27.4286" height="27.4286" fill="white" transform="translate(6.85715 6.85714)"/>
</clipPath>
</defs>
</svg>
